<?xml version="1.0" encoding="UTF-8" standalone="no"?>
<!-- Created with Inkscape (http://www.inkscape.org/) -->

<svg
   xmlns:dc="http://purl.org/dc/elements/1.1/"
   xmlns:cc="http://creativecommons.org/ns#"
   xmlns:rdf="http://www.w3.org/1999/02/22-rdf-syntax-ns#"
   xmlns:svg="http://www.w3.org/2000/svg"
   xmlns="http://www.w3.org/2000/svg"
   xmlns:sodipodi="http://sodipodi.sourceforge.net/DTD/sodipodi-0.dtd"
   xmlns:inkscape="http://www.inkscape.org/namespaces/inkscape"
   version="1.1"
   id="svg152"
   width="352"
   height="137.60001"
   viewBox="0 0 352 137.60001"
   sodipodi:docname="logo.svg"
   inkscape:version="0.92.4 (5da689c313, 2019-01-14)">
  <metadata
     id="metadata158">
    <rdf:RDF>
      <cc:Work
         rdf:about="">
        <dc:format>image/svg+xml</dc:format>
        <dc:type
           rdf:resource="http://purl.org/dc/dcmitype/StillImage" />
        <dc:title></dc:title>
      </cc:Work>
    </rdf:RDF>
  </metadata>
  <defs
     id="defs156" />
  <sodipodi:namedview
     pagecolor="#ffffff"
     bordercolor="#666666"
     borderopacity="1"
     objecttolerance="10"
     gridtolerance="10"
     guidetolerance="10"
     inkscape:pageopacity="0"
     inkscape:pageshadow="2"
     inkscape:window-width="1366"
     inkscape:window-height="705"
     id="namedview154"
     showgrid="false"
     inkscape:zoom="2.5284091"
     inkscape:cx="176"
     inkscape:cy="68.800003"
     inkscape:window-x="-8"
     inkscape:window-y="-8"
     inkscape:window-maximized="1"
     inkscape:current-layer="svg152" />
  <path
     style="fill:#ffffff;stroke-width:0.32000002"
     d="m 217.76,100.73762 c -0.86433,-0.49013 -1.1093,-0.90489 -1.1151,-1.888016 -0.008,-1.300042 1.03122,-1.991117 3.2326,-2.150352 2.23476,-0.161648 2.76379,-0.750848 1.55386,-1.730589 -0.61934,-0.501507 -1.04674,-0.573104 -2.37336,-0.397575 -1.30877,0.173168 -1.54299,0.135908 -1.22553,-0.194966 0.21585,-0.224976 1.1284,-0.419638 2.02788,-0.432582 2.28172,-0.03283 2.85965,0.710086 2.85965,3.676016 0,1.747718 0.11228,2.251485 0.55733,2.500554 0.8328,0.46605 0.18994,0.85898 -0.80954,0.4948 -0.60706,-0.22119 -1.20429,-0.19824 -1.98779,0.0764 -1.4072,0.49325 -1.91656,0.50193 -2.72,0.0463 z m 3.65898,-1.371142 c 1.19858,-1.198583 0.62362,-1.930314 -1.50447,-1.914692 -1.80975,0.01328 -2.63451,0.517783 -2.63451,1.611501 0,1.601893 2.64643,1.795753 4.13898,0.303191 z m 7.16373,1.237272 c -0.5687,-0.28046 -1.25208,-0.996492 -1.54977,-1.623823 -1.38873,-2.926525 1.5714,-6.162586 4.36316,-4.769875 0.5509,0.274825 1.12815,0.421494 1.28277,0.325932 0.46952,-0.290179 0.31415,-2.270208 -0.21243,-2.707232 -0.59546,-0.494189 -0.11835,-1.129235 0.63205,-0.84128 0.42123,0.161645 0.50151,0.887146 0.50151,4.532535 0,3.562656 0.086,4.373082 0.48,4.524283 0.264,0.1013 0.48,0.31278 0.48,0.46995 0,0.40975 -1.0849,0.35286 -1.51732,-0.0796 -0.27377,-0.27376 -0.64278,-0.23366 -1.47237,0.16 -1.35763,0.64424 -1.69754,0.64528 -2.9876,0.009 z m 2.62623,-0.50604 c 0.85966,-0.391687 1.75106,-1.744628 1.75106,-2.657703 0,-0.979059 -0.93592,-2.312381 -1.90491,-2.713751 -0.78509,-0.325193 -1.16509,-0.325193 -1.95018,0 -1.0003,0.414337 -1.91372,1.75433 -1.89357,2.77786 0.0173,0.880525 0.77319,2.057827 1.62388,2.529324 0.95965,0.5319 1.32564,0.54181 2.37372,0.0643 z m 7.91736,0.56272 c -1.1571,-0.51965 -2.32329,-2.190372 -2.3251,-3.33105 -0.003,-1.6344 1.98011,-3.569373 3.65744,-3.569373 1.12965,0 2.719,0.948534 3.22326,1.923674 0.87217,1.686582 0.54584,1.916326 -2.7219,1.916326 -3.27512,0 -3.84529,0.391872 -2.5603,1.759683 0.93088,0.99087 2.17383,1.24905 3.84582,0.79883 1.46759,-0.395182 2.01038,-0.243614 1.02196,0.28537 -1.12625,0.60275 -3.05644,0.70368 -4.14118,0.21654 z m 3.9771,-4.230266 c 0.23332,-0.608 -0.83087,-1.609485 -2.03008,-1.910464 -1.4546,-0.365085 -3.73678,1.176249 -3.14923,2.126921 0.10652,0.172362 1.2697,0.313386 2.58484,0.313386 1.93025,0 2.43035,-0.102131 2.59447,-0.529843 z M 280.8,100.73762 c -0.98238,-0.55707 -1.10982,-0.903507 -1.1151,-3.03144 -0.006,-2.264551 -0.2084,-2.986173 -0.83914,-2.986173 -0.64116,0 -0.54866,-0.421786 0.19424,-0.885738 0.352,-0.219827 0.64,-0.686464 0.64,-1.036973 0,-0.965232 0.58306,-0.762704 0.69875,0.242711 0.0944,0.820777 0.21431,0.886509 1.78125,0.976723 0.924,0.0532 1.68,0.225674 1.68,0.383277 0,0.157603 -0.756,0.33008 -1.68,0.383277 l -1.68,0.09672 -0.0955,2.197699 c -0.12062,2.776388 0.41272,3.561297 2.22317,3.271797 0.647,-0.10346 1.40495,-0.27583 1.68434,-0.383041 0.27938,-0.10721 0.50797,-0.04229 0.50797,0.144271 0,0.33587 -1.95474,1.01308 -2.88,0.99776 -0.264,-0.004 -0.768,-0.17126 -1.12,-0.37087 z m -74.84277,-0.49761 c 0.41663,-0.87808 0.52931,-7.000378 0.14216,-7.723773 -0.22827,-0.426531 -0.23403,-0.703578 -0.0174,-0.837466 0.77694,-0.480169 1.54036,0.293242 2.54422,2.577498 0.58222,1.324842 1.20088,2.361376 1.37479,2.303405 0.1739,-0.05797 0.83882,-1.179609 1.4776,-2.492534 0.81197,-1.668932 1.33652,-2.387133 1.74346,-2.387133 0.53281,0 0.58697,0.385865 0.64,4.560182 l 0.0579,4.560181 -1.04,-1.8e-4 c -1.18789,-2.1e-4 -1.32654,-0.30729 -0.4,-0.88592 0.55664,-0.347626 0.63936,-0.743197 0.6351,-3.036973 -0.008,-4.118653 -0.49379,-4.319978 -1.9252,-0.79729 -0.41122,1.012 -0.94539,1.84 -1.18705,1.84 -0.24165,0 -0.8846,-1.008 -1.42876,-2.24 -0.54416,-1.232 -1.11195,-2.24 -1.26174,-2.24 -0.14978,0 -0.27234,1.444518 -0.27234,3.210042 0,2.558176 0.0975,3.247449 0.48,3.394241 0.87351,0.3352 0.49834,0.75572 -0.67424,0.75572 -0.98716,0 -1.11577,-0.0811 -0.88853,-0.56 z m 53.03889,0.18788 c -0.15187,-0.23534 -0.51384,-1.435883 -0.8044,-2.667883 -0.29055,-1.232 -0.63134,-2.564 -0.75732,-2.96 -0.19773,-0.621581 -0.11459,-0.72 0.60828,-0.72 0.88543,0 1.05728,0.292035 0.49987,0.849449 -0.40306,0.403057 0.36071,3.817873 0.83743,3.744164 0.16501,-0.0255 0.51158,-0.637517 0.77015,-1.36 0.27797,-0.776682 0.6744,-1.313613 0.96987,-1.313613 0.29547,0 0.6919,0.536931 0.96987,1.313613 0.25857,0.722483 0.61413,1.319318 0.79013,1.326294 0.45631,0.01808 1.16395,-3.362998 0.78357,-3.743907 -0.52418,-0.524922 -0.33378,-0.816 0.53375,-0.816 0.71999,0 0.80659,0.100896 0.618,0.72 -0.12063,0.396 -0.48424,1.846806 -0.808,3.224013 -0.32378,1.37721 -0.67627,2.59161 -0.78333,2.69867 -0.30981,0.30981 -0.77234,-0.31671 -1.24792,-1.690414 -0.24226,-0.699747 -0.62749,-1.272269 -0.85607,-1.272269 -0.22858,0 -0.61381,0.572522 -0.85607,1.272269 -0.53932,1.557794 -0.90406,1.959304 -1.26781,1.395614 z m 9.48388,0.0714 c 0,-0.16538 0.54,-0.34538 1.2,-0.4 l 1.2,-0.0993 v -2.560003 c 0,-2.554848 -0.002,-2.560205 -0.88,-2.661255 -1.34604,-0.15488 -1.04698,-0.7512 0.32,-0.638064 l 1.2,0.09932 0.16,2.88 0.16,2.880003 1.2,0.0993 c 2.35861,0.1952 1.14665,0.70068 -1.68,0.70068 -1.584,0 -2.88,-0.13531 -2.88,-0.30068 z m 19.84,-3.2e-4 c 0,-0.16562 0.144,-0.39012 0.32,-0.49889 0.18559,-0.114702 0.32,-1.869991 0.32,-4.178887 0,-2.440855 -0.12381,-3.981226 -0.32,-3.981226 -0.176,0 -0.32,-0.22656 -0.32,-0.503463 0,-0.30663 0.21894,-0.461929 0.56,-0.397222 0.4167,0.07906 0.60094,0.514944 0.72,1.703462 0.13807,1.378311 0.24772,1.582708 0.8,1.491319 3.44885,-0.570691 4.32,0.131561 4.32,3.48247 0,1.202116 0.144,2.27466 0.32,2.383437 0.63077,0.38983 0.30264,0.8 -0.64,0.8 -0.94264,0 -1.27077,-0.41017 -0.64,-0.8 0.176,-0.108777 0.32,-1.125276 0.32,-2.258889 0,-1.634448 -0.13249,-2.1936 -0.64,-2.701114 -0.89847,-0.898474 -1.81185,-0.797383 -2.93396,0.324726 -0.87586,0.875863 -0.9527,1.11904 -0.83421,2.640001 0.0718,0.921401 0.24439,1.927273 0.38358,2.235276 0.21125,0.46747 0.0888,0.56 -0.74117,0.56 -0.54684,0 -0.99424,-0.1355 -0.99424,-0.30112 z m 35.66102,-0.0496 c -0.1192,-0.19289 0.0163,-0.583745 0.30112,-0.868571 0.47716,-0.477152 0.55856,-0.477152 1.03572,0 0.60483,0.604831 0.34387,1.219281 -0.51786,1.219281 -0.33123,0 -0.69978,-0.15782 -0.81898,-0.35071 z m 8.32,0 c -0.1192,-0.19289 0.0163,-0.583745 0.30112,-0.868571 0.47716,-0.477152 0.55856,-0.477152 1.03572,0 0.60483,0.604831 0.34387,1.219281 -0.51786,1.219281 -0.33123,0 -0.69978,-0.15782 -0.81898,-0.35071 z m 8.32,0 c -0.1192,-0.19289 0.0163,-0.583745 0.30112,-0.868571 0.47716,-0.477152 0.55856,-0.477152 1.03572,0 0.60483,0.604831 0.34387,1.219281 -0.51786,1.219281 -0.33123,0 -0.69978,-0.15782 -0.81898,-0.35071 z m -27.31441,-1.377227 c -0.20447,-0.246365 -1.16436,-0.769635 -2.13311,-1.162819 -2.73989,-1.112039 -3.46755,-3.104429 -1.75811,-4.81386 1.16007,-1.160077 2.22985,-1.192576 3.52006,-0.10694 l 0.98455,0.828448 0.98455,-0.828448 c 1.29021,-1.085636 2.35999,-1.053137 3.52006,0.10694 1.78691,1.7869 1.15511,3.505652 -1.77128,4.818631 -1.11,0.498026 -2.11559,1.063107 -2.23464,1.255741 -0.29251,0.473296 -0.66538,0.440541 -1.11208,-0.09769 z M 270.72,91.520007 c 0,-0.355556 0.21333,-0.64 0.48,-0.64 0.26667,0 0.48,0.284444 0.48,0.64 0,0.355555 -0.21333,0.64 -0.48,0.64 -0.26667,0 -0.48,-0.284445 -0.48,-0.64 z m -25.34865,-7.600001 c -0.60425,-0.693635 -0.40076,-1.36 0.41532,-1.36 0.46304,0 0.61333,-0.226742 0.61333,-0.925309 0,-0.742851 -0.17352,-0.968621 -0.88,-1.144944 -3.34871,-0.835789 -5.0762,-4.268986 -3.7478,-7.448314 0.643,-1.538906 1.30923,-2.247363 2.85557,-3.036564 1.12506,-0.574192 1.62936,-0.622883 4.48,-0.432537 3.6652,0.244736 4.01223,0.472272 4.01223,2.630685 0,1.022557 -0.16817,1.478483 -0.67674,1.834698 -0.84965,0.595116 -1.26369,0.436806 -1.93531,-0.739968 -1.05653,-1.851165 -4.5957,-1.925873 -6.01079,-0.12688 -0.95281,1.211299 -0.88425,3.129229 0.14598,4.084016 1.35976,1.260182 4.71148,1.40952 6.49578,0.289424 1.1929,-0.748842 2.14108,-0.440752 2.14108,0.695693 0,0.815651 -0.21469,1.068262 -1.4278,1.68 -0.7853,0.396 -1.8293,0.72 -2.32,0.72 -1.02125,0 -1.10759,0.333789 -0.3754,1.451258 0.47626,0.726857 0.47568,0.85151 -0.007,1.588742 -0.42529,0.649079 -0.78509,0.8 -1.90721,0.8 -0.91799,0 -1.54706,-0.188297 -1.87086,-0.56 z m -78.15999,-1.234352 c -0.32865,-0.328656 -0.43638,-0.759773 -0.29969,-1.199366 0.4928,-1.584833 8.13426,-17.613131 8.51377,-17.857999 0.57583,-0.371539 1.24579,-0.203846 1.63124,0.408304 0.25063,0.398039 -0.46698,2.233943 -3.127,8.000001 -4.49379,9.741038 -4.85373,10.438839 -5.58703,10.831287 -0.46852,0.250749 -0.74243,0.206627 -1.13129,-0.182227 z m 135.36,0 c -0.32865,-0.328656 -0.43638,-0.759773 -0.29969,-1.199366 0.4928,-1.584833 8.13426,-17.613131 8.51377,-17.857999 0.57583,-0.371539 1.24579,-0.203846 1.63124,0.408304 0.25063,0.398039 -0.46698,2.233943 -3.127,8.000001 -4.49379,9.741038 -4.85373,10.438839 -5.58703,10.831287 -0.46852,0.250749 -0.74243,0.206627 -1.13129,-0.182227 z M 34.660131,80.927212 c -2.035584,-0.588944 -3.108732,-3.074109 -2.232768,-5.170586 0.64313,-1.539225 1.672272,-2.144685 4.100736,-2.412521 L 38.56,73.120005 V 57.600004 42.080003 l -2.021053,-0.193238 c -2.441721,-0.23346 -3.564697,-0.97176 -4.19639,-2.758916 -0.396623,-1.122112 -0.396594,-1.454048 2.21e-4,-2.49664 0.251712,-0.661354 0.863923,-1.50593 1.36047,-1.876835 0.876202,-0.654493 1.267622,-0.677172 13.279782,-0.769322 13.575095,-0.104141 15.328951,0.04416 18.520429,1.566032 7.803895,3.721325 10.341331,12.802948 5.38968,19.289966 -1.123949,1.472452 -1.38616,2.118954 -0.859417,2.118954 0.150544,0 1.225548,0.872179 2.388892,1.938173 6.846976,6.27401 5.748343,16.583841 -2.182614,20.4822 -3.586179,1.762739 -4.992768,1.890845 -20.48,1.865213 -7.744,-0.01283 -14.538941,-0.156087 -15.099869,-0.318378 z m 29.319818,-7.963405 c 3.649763,-0.692163 5.031069,-2.070093 4.732304,-4.720733 C 68.511069,66.458165 67.23297,64.822027 64.97105,63.453822 62.520038,61.971243 60.839005,61.735051 53.436198,61.833137 L 46.88,61.920004 46.791747,67.18772 c -0.04854,2.897245 -0.01706,5.453245 0.06996,5.68 0.196256,0.511437 14.50462,0.591751 17.118243,0.09609 z M 61.032656,52.521575 c 0.919962,-0.414736 2.251962,-1.382538 2.96,-2.150669 C 65.104422,49.164784 65.28,48.774762 65.28,47.511261 c 0,-2.754058 -1.393565,-4.263693 -4.723338,-5.116743 -1.45015,-0.37151 -3.326092,-0.468253 -7.793273,-0.401901 L 46.88,42.080007 46.79175,47.347723 c -0.04854,2.897245 -0.01283,5.464259 0.07935,5.704477 0.135574,0.353299 1.344825,0.416377 6.328252,0.330102 5.65633,-0.09793 6.297575,-0.168387 7.833306,-0.860723 z m 25.820205,28.311736 c -3.00129,-1.331568 -3.211101,-5.437142 -0.355949,-6.965171 0.378003,-0.202301 1.482835,-0.453392 2.455184,-0.557978 L 90.72,73.120005 V 57.600004 42.080003 l -1.767904,-0.190157 c -0.972349,-0.104585 -2.077181,-0.355677 -2.455184,-0.557977 -3.043686,-1.628932 -2.534944,-6.113934 0.806672,-7.111502 0.798192,-0.238281 5.085904,-0.310819 13.336416,-0.225613 13.16918,0.136 13.50833,0.176893 17.271,2.082305 2.37253,1.201449 5.42324,4.419178 6.65454,7.018855 0.98714,2.084179 1.03446,2.35975 1.03446,6.02409 0,3.627715 -0.0546,3.955305 -0.98843,5.925725 -1.69028,3.566717 -5.96271,7.202804 -10.53157,8.962976 -1.69485,0.652951 -2.67048,0.761476 -8.32,0.925495 l -6.4,0.185805 v 4 4 l 5.28,0.160304 c 4.32547,0.131325 5.42952,0.261869 6.10706,0.722116 2.27316,1.544128 2.27316,5.010502 0,6.555466 -0.74359,0.505388 -1.9412,0.569747 -11.86706,0.63775 -8.776781,0.06013 -11.242365,-0.01414 -12.027139,-0.36233 z M 110.14425,56.600577 c 8.51644,-1.80512 10.37452,-10.406161 2.97575,-13.774718 -1.4826,-0.675008 -2.04612,-0.729094 -7.68,-0.737155 l -6.08,-0.0087 -0.08644,7.032429 c -0.04754,3.867837 -0.01606,7.215837 0.06996,7.440001 0.202793,0.528467 8.363,0.564841 10.80074,0.04814 z m 15.46158,23.519541 c -0.72028,-0.720275 -0.48766,-1.768192 0.5173,-2.330381 0.75549,-0.422637 0.93011,-0.414666 1.68,0.07668 0.89278,0.584973 1.11021,1.73225 0.45287,2.389588 -0.55003,0.550032 -2.04069,0.473597 -2.65017,-0.135887 z m 15.04,0 c -0.72028,-0.720275 -0.48766,-1.768192 0.5173,-2.330381 0.75549,-0.422637 0.93011,-0.414666 1.68,0.07668 0.89278,0.584973 1.11021,1.73225 0.45287,2.389588 -0.55003,0.550032 -2.04069,0.473597 -2.65017,-0.135887 z m 15.04,0 c -0.72028,-0.720275 -0.48766,-1.768192 0.5173,-2.330381 0.75549,-0.422637 0.93011,-0.414666 1.68,0.07668 0.89278,0.584973 1.11021,1.73225 0.45287,2.389588 -0.55003,0.550032 -2.04069,0.473597 -2.65017,-0.135887 z M 184.8,80.291635 c -0.528,-0.161348 -1.33306,-0.21457 -1.78901,-0.118269 -1.18928,0.251184 -1.62436,-0.450899 -1.50861,-2.434426 0.14395,-2.466935 0.82613,-2.749485 2.43381,-1.008054 1.17845,1.276489 1.34193,1.34912 3.03681,1.34912 1.41103,0 1.97408,-0.157213 2.65224,-0.740538 0.74005,-0.636563 0.80921,-0.837162 0.49262,-1.42872 -0.20384,-0.380883 -0.90181,-0.831767 -1.56308,-1.009735 -0.65713,-0.176854 -1.99078,-0.536649 -2.96367,-0.799545 -2.50318,-0.676419 -3.67111,-1.954288 -3.67111,-4.016695 0,-1.215104 0.17414,-1.739581 0.8,-2.409392 1.63253,-1.747187 3.16744,-2.105552 6.88,-1.60633 1.056,0.142 2.1,0.400186 2.32,0.573751 0.51344,0.405065 0.5258,3.503408 0.016,4.013203 -0.68059,0.680589 -1.45657,0.411488 -2.1365,-0.740922 -1.05854,-1.794086 -3.12494,-2.28072 -4.63634,-1.091852 -1.78057,1.400592 -0.87294,2.431462 2.94,3.339222 2.69413,0.641402 4.05977,1.617658 4.50168,3.218122 0.36005,1.303962 -0.0292,3.008935 -0.85835,3.759255 -1.48378,1.342803 -4.61983,1.862793 -6.94649,1.151805 z m 14.37485,-0.258455 c -4.27768,-1.942822 -4.31043,-7.854356 -0.0549,-9.914407 4.67718,-2.264186 9.97083,1.352439 9.06296,6.191812 -0.63714,3.396246 -5.39628,5.362973 -9.00803,3.722595 z M 205.04,76.958914 c 1.49314,-1.730793 0.54132,-4.317686 -1.82289,-4.954301 -3.54168,-0.953677 -6.34801,2.788548 -3.84475,5.126945 1.56648,1.463309 4.32891,1.379161 5.66764,-0.172644 z m 23.88181,3.088865 C 227.62978,79.235539 227.2,77.93173 227.2,74.824335 c 0,-2.400557 -0.0384,-2.534755 -0.8082,-2.827447 -0.99279,-0.377456 -1.3185,-1.122246 -0.77643,-1.775401 0.29687,-0.357712 0.89089,-0.46482 2.1958,-0.395924 l 1.78883,0.09444 0.091,3.660522 c 0.0504,2.02584 0.24651,3.84785 0.43918,4.08 0.51714,0.62312 2.52444,0.505696 3.70977,-0.217014 0.99874,-0.608941 1.04,-0.715258 1.04,-2.679623 0,-2.09095 -0.25028,-2.591155 -1.4057,-2.80945 -0.91362,-0.172611 -1.36911,-1.070025 -0.85656,-1.687612 0.59875,-0.721453 4.35122,-0.721981 4.62802,-6.4e-4 0.10684,0.278393 0.19424,2.073328 0.19424,3.988739 0,3.155066 0.0602,3.514781 0.64,3.825088 0.74721,0.399892 0.83814,1.357191 0.18075,1.902778 -0.26151,0.217034 -1.32932,0.36433 -2.48,0.342099 -1.11141,-0.02147 -2.88475,0.04859 -3.94075,0.155687 -1.57904,0.160147 -2.09726,0.08329 -2.91819,-0.432791 z m 30.41304,-0.01459 c -4.27768,-1.942823 -4.31043,-7.854356 -0.0549,-9.914408 4.67718,-2.264185 9.97083,1.352439 9.06296,6.191812 -0.63714,3.396247 -5.39628,5.362973 -9.00803,3.722596 z M 265.2,76.958921 c 1.49314,-1.730794 0.54132,-4.317687 -1.82289,-4.954301 -3.54168,-0.953677 -6.34801,2.788547 -3.84475,5.126944 1.56648,1.463309 4.32891,1.379162 5.66764,-0.172643 z m 8.85485,3.095731 c -4.23514,-1.993165 -4.26778,-7.896468 -0.0549,-9.935873 1.54036,-0.74568 4.09173,-0.900432 5.57925,-0.338409 2.04323,0.771981 3.62083,2.983149 3.62083,5.074957 v 1.287107 l -4.53375,0.08878 c -4.79777,0.09396 -5.53821,0.35512 -3.95252,1.394106 1.00003,0.655242 3.49626,0.717632 5.87555,0.146851 1.83242,-0.439593 2.61072,-0.147798 2.61072,0.978794 0,1.004525 -1.79749,1.65423 -4.95825,1.79216 -2.3563,0.102826 -3.11973,0.01376 -4.1869,-0.488483 z m 5.79381,-6.468656 c 0.54589,-0.883268 -1.98087,-2.039543 -3.70387,-1.694941 -1.24212,0.248422 -2.44047,1.375488 -1.85618,1.74577 0.61843,0.391916 5.31295,0.348998 5.56005,-0.05083 z m 9.18651,6.819475 c -1.01848,-0.09158 -1.49644,-0.323574 -1.88341,-0.914166 -1.19432,-1.822775 0.82831,-4.094647 2.1204,-2.381683 0.52042,0.689929 2.62595,1.376438 3.52784,1.150252 0.264,-0.06621 0.876,-0.208505 1.36,-0.316217 0.484,-0.107712 0.88,-0.412183 0.88,-0.676602 0,-0.615872 -0.92507,-0.985277 -3.52,-1.405629 -2.31014,-0.374217 -3.52816,-1.100451 -3.98177,-2.374102 -0.45224,-1.269767 0.12423,-2.482756 1.58691,-3.339121 1.16382,-0.681388 1.53617,-0.731318 4.27491,-0.573238 1.65003,0.09524 3.19803,0.337469 3.44,0.538285 0.67024,0.556253 0.56683,2.756339 -0.14753,3.138656 -0.45069,0.2412 -0.86122,0.119639 -1.76313,-0.522077 -1.30628,-0.929433 -3.63736,-1.150137 -4.50882,-0.426893 -0.76947,0.638609 -0.35829,0.889597 2.14057,1.306615 3.63611,0.60681 5.16686,1.69009 5.16686,3.656474 0,2.690298 -2.72865,3.67576 -8.69283,3.139446 z M 211.904,79.936006 c -0.48623,-0.486227 -0.49629,-1.428829 -0.0184,-1.724173 0.20107,-0.124266 1.17307,-0.312765 2.16,-0.418883 l 1.7944,-0.192944 0.0922,-4.320001 c 0.11872,-5.565619 0.069,-5.76 -1.47426,-5.76 -1.97268,0 -2.80689,-1.620659 -1.15707,-2.24792 0.97713,-0.371504 3.97521,-0.406439 4.53187,-0.05281 0.2824,0.179402 0.41722,1.953101 0.48,6.315098 l 0.0873,6.06563 1.79442,0.192944 c 2.08113,0.223769 2.52558,0.435286 2.52558,1.201942 0,1.177171 -0.62521,1.325114 -5.6,1.325114 -3.33156,0 -4.95124,-0.119242 -5.216,-0.384 z m 49.95618,-12.120043 c -0.92157,-0.590313 -1.10657,-0.609443 -1.92,-0.198515 -1.69931,0.858448 -2.35427,-0.176483 -0.85702,-1.354218 1.07664,-0.846892 2.02292,-0.838659 3.4959,0.03043 0.95278,0.562154 1.28907,0.622816 1.77395,0.32 0.80496,-0.502707 1.88699,-0.473705 1.88699,0.05057 0,0.740042 -1.43867,1.816023 -2.42062,1.810388 -0.51666,-0.0029 -1.3983,-0.299357 -1.9592,-0.65865 z"
     id="path178"
     inkscape:connector-curvature="0" />
</svg>
